<svg width="325" height="367" viewBox="0 0 325 367" fill="none" xmlns="http://www.w3.org/2000/svg">
    <path fill-rule="evenodd" clip-rule="evenodd"
        d="M192.452 66.7632C161.337 20.9244 62.0033 30.9195 58.1404 124.963C57.5927 138.296 48.1976 146.84 40 150.393V326.119H90.0381C101.084 326.119 110.038 335.073 110.038 346.119C110.038 357.164 101.084 366.119 90.0381 366.119H38.0245C26.5182 366.119 16.9611 362.061 10.169 355.317C3.90011 349.091 0.869366 341.452 0.133257 335.107C0.0444927 334.342 0 333.572 0 332.802V148.747C0 131.944 9.47703 121.751 18.599 116.392C28.826 -8.40038 172.727 -33.5176 225.548 44.2983C231.751 53.4374 229.372 65.8751 220.232 72.0786C211.093 78.2821 198.656 75.9023 192.452 66.7632Z"
        fill="#1e0a3c" />
    <path
        d="M260.237 293.899L250.496 268.294H167.556L157.815 294.456C154.011 304.661 150.764 311.573 148.074 315.191C145.383 318.716 140.977 320.479 134.854 320.479C129.658 320.479 125.066 318.577 121.077 314.773C117.087 310.97 115.093 306.656 115.093 301.832C115.093 299.048 115.557 296.172 116.484 293.204C117.412 290.235 118.943 286.106 121.077 280.818L173.262 148.338C174.746 144.534 176.509 139.988 178.55 134.7C180.684 129.319 182.91 124.866 185.229 121.341C187.642 117.815 190.75 114.986 194.553 112.852C198.45 110.625 203.228 109.512 208.887 109.512C214.639 109.512 219.417 110.625 223.22 112.852C227.117 114.986 230.225 117.769 232.544 121.202C234.956 124.634 236.951 128.345 238.528 132.334C240.198 136.231 242.285 141.473 244.79 148.06L298.088 279.705C302.263 289.725 304.351 297.007 304.351 301.553C304.351 306.285 302.356 310.645 298.367 314.634C294.47 318.531 289.739 320.479 284.172 320.479C280.925 320.479 278.142 319.876 275.823 318.67C273.503 317.557 271.555 316.026 269.978 314.078C268.401 312.037 266.685 308.975 264.829 304.893C263.066 300.718 261.536 297.054 260.237 293.899ZM178.411 237.261H239.363L208.608 153.069L178.411 237.261Z"
        fill="#FFA800" />
    <path
        d="M254.696 115.436C250.879 105.959 240.097 101.36 230.615 105.165C230.585 105.177 230.556 105.189 230.527 105.201C228.062 106.204 229.084 109.55 231.529 110.599C235.871 112.462 239.506 115.975 241.41 120.701L310.365 291.902C312.289 296.679 312.077 301.783 310.179 306.159C309.12 308.6 310.67 311.739 313.152 310.782C313.233 310.751 313.313 310.72 313.394 310.687C322.876 306.883 327.469 296.115 323.651 286.638L254.696 115.436Z"
        fill="#1e0a3c" />
</svg>